<?xml version="1.0" encoding="UTF-8" standalone="no"?>
<svg
   version="1.1"
   id="svg2197"
   sodipodi:docname="frailejon.svg"
   inkscape:version="1.1 (c4e8f9e, 2021-05-24)"
   xmlns:inkscape="http://www.inkscape.org/namespaces/inkscape"
   xmlns:sodipodi="http://sodipodi.sourceforge.net/DTD/sodipodi-0.dtd"
   xmlns="http://www.w3.org/2000/svg"
   xmlns:svg="http://www.w3.org/2000/svg">
  <defs
     id="defs2201" />
  <sodipodi:namedview
     id="namedview2199"
     pagecolor="#ffffff"
     bordercolor="#666666"
     borderopacity="1.0"
     inkscape:pageshadow="2"
     inkscape:pageopacity="0.0"
     inkscape:pagecheckerboard="0"
     showgrid="false"
     inkscape:zoom="32"
     inkscape:cx="7.578125"
     inkscape:cy="7.234375"
     inkscape:window-width="1296"
     inkscape:window-height="1003"
     inkscape:window-x="0"
     inkscape:window-y="23"
     inkscape:window-maximized="0"
     inkscape:current-layer="svg2197" />
  <path
     style="fill:none;stroke:#000000;stroke-width:0.300024;stroke-linecap:butt;stroke-linejoin:miter;stroke-miterlimit:4;stroke-dasharray:none;stroke-opacity:1"
     d="M 3.4843905,2.8997851 C 3.8904754,2.108841 4.2747241,1.0791872 4.2524167,0.27363568"
     id="path3414"
     sodipodi:nodetypes="cc" />
  <circle
     style="fill:none;stroke:#000000;stroke-width:0.300024;stroke-linecap:round;stroke-miterlimit:4;stroke-dasharray:none"
     id="circle3416"
     cx="-4.2676964"
     cy="0.25721428"
     transform="scale(-1,1)"
     r="0.10720229" />
  <path
     style="fill:none;stroke:#000000;stroke-width:0.300024;stroke-linecap:butt;stroke-linejoin:miter;stroke-miterlimit:4;stroke-dasharray:none;stroke-opacity:1"
     d="M 2.5566996,2.9173055 C 2.1506039,2.1263507 1.7663553,1.0967076 1.7886733,0.29115605"
     id="path2924"
     sodipodi:nodetypes="cc" />
  <path
     id="path2711"
     style="fill:#ffffff;stroke:#000000;stroke-width:0.300024;stroke-linecap:butt;stroke-linejoin:miter;stroke-miterlimit:4;stroke-dasharray:none;stroke-opacity:1"
     d="M 2.9920402,1.1491697 C 2.3911001,2.1935702 2.3158567,3.3086839 2.9973949,4.5254609 3.6790188,3.3086839 3.6037754,2.1935702 3.0027496,1.1491697 Z"
     sodipodi:nodetypes="cccc" />
  <path
     id="path2369"
     style="fill:#ffffff;stroke:#000000;stroke-width:0.300024;stroke-linecap:butt;stroke-linejoin:miter;stroke-miterlimit:4;stroke-dasharray:none;stroke-opacity:1"
     d="M 4.6223357,1.8615116 C 3.4756965,2.6023038 3.0183609,3.6019158 3.0440847,4.7836199 l 0.00976,0.015626 C 4.2005114,4.058443 4.6578366,3.0568886 4.6321022,1.8751845 Z"
     sodipodi:nodetypes="ccccc" />
  <path
     id="path2713"
     style="fill:#ffffff;stroke:#000000;stroke-width:0.300024;stroke-linecap:butt;stroke-linejoin:miter;stroke-miterlimit:4;stroke-dasharray:none;stroke-opacity:1"
     d="m 1.4099038,1.8751845 c -0.025809,1.1817362 0.431577,2.1832477 1.578251,2.9240617 l 0.00977,-0.015626 C 3.0236236,3.601873 2.5683618,2.6023148 1.4216235,1.8615116 Z"
     sodipodi:nodetypes="ccccc" />
  <path
     id="path2213"
     style="fill:#000000;stroke:#000000;stroke-width:0.300024;stroke-linecap:butt;stroke-linejoin:miter;stroke-miterlimit:4;stroke-dasharray:none;stroke-opacity:1"
     d="M 5.9120756,3.1111219 C 5.3097435,4.1547192 4.382695,4.7789092 2.9881548,4.7992462 m 0.015207,0.00857 C 3.605705,3.7642055 4.5327534,3.1400263 5.9272938,3.1196893"
     sodipodi:nodetypes="cccc" />
  <path
     id="path2715"
     style="fill:#000000;stroke:#000000;stroke-width:0.300024;stroke-linecap:butt;stroke-linejoin:miter;stroke-miterlimit:4;stroke-dasharray:none;stroke-opacity:1"
     d="m 0.1299247,3.1111112 c 0.6023324,1.043608 1.5293806,1.667798 2.9239208,1.688135 m -0.015207,0.00857 C 2.4362953,3.7642055 1.5092577,3.1400263 0.11471748,3.1196786"
     sodipodi:nodetypes="cccc" />
  <circle
     style="fill:none;stroke:#000000;stroke-width:0.300024;stroke-linecap:round;stroke-miterlimit:4;stroke-dasharray:none"
     id="path3081"
     cx="1.7733812"
     cy="0.2747319"
     r="0.10720229" />
  <path
     id="path4490"
     style="fill:none;stroke:#000000;stroke-width:0.300024;stroke-linecap:butt;stroke-linejoin:miter;stroke-miterlimit:4;stroke-dasharray:none;stroke-opacity:1"
     d="M 3.0253374,4.8339227 C 1.6797064,4.844632 0.78885562,5.2203026 0.73244981,5.9160627 0.72066967,7.9331865 1.2376562,8.1927457 1.6682547,10.086541 l 2.6903128,2.14e-4 C 4.7891549,8.1929493 5.3299521,7.9331865 5.3181612,5.9160734 5.2599025,5.1978774 4.4532905,4.8204504 3.0253374,4.8339227 h -7.49e-5 c -0.044551,-4.283e-4 0.043479,-3.641e-4 7.49e-5,0 z"
     sodipodi:nodetypes="cccccscc" />
</svg>
